<?xml version="1.0" ?><!DOCTYPE svg  PUBLIC '-//W3C//DTD SVG 1.1//EN'  'http://www.w3.org/Graphics/SVG/1.1/DTD/svg11.dtd'><svg enable-background="new 0 0 512 512" height="512px" version="1.1" viewBox="0 0 512 512" width="512px" xml:space="preserve" xmlns="http://www.w3.org/2000/svg" xmlns:xlink="http://www.w3.org/1999/xlink"><g id="Layer_1"/><g id="Colors"><rect fill="#FFFFFF" height="267" stroke="#231F20" stroke-miterlimit="10" width="267" x="-779" y="-512"/><rect fill="#FBD50A" height="267" stroke="#231F20" stroke-miterlimit="10" width="267" x="-779" y="-244"/><rect fill="#C61934" height="267" stroke="#231F20" stroke-miterlimit="10" width="267" x="-779" y="23"/><rect fill="#96212C" height="267" stroke="#231F20" stroke-miterlimit="10" width="267" x="-779" y="290"/><rect fill="#202C3C" height="267" stroke="#231F20" stroke-miterlimit="10" width="267" x="-779" y="557"/><rect fill="#ED1C24" height="267" stroke="#231F20" stroke-miterlimit="10" width="267" x="-779" y="825"/></g><g id="Icon"><ellipse cx="258.375" cy="255.649" fill="#FBD50A" rx="254.776" ry="252.774"/></g><g id="Layer_5"><circle cx="392.115" cy="301.25" fill="none" r="38.25" stroke="#F2F2F2" stroke-miterlimit="10" stroke-width="25"/><path d="M124.333,218.5c0,79.805,60.591,164.5,135.333,164.5S395,298.305,395,218.5" fill="#F2F2F2"/><path d="M143.333,230.047c0,68.601,52.084,141.405,116.333,141.405S376,298.648,376,230.047" fill="#CA8B44"/><path d="M165.468,243.5c0,55.548,42.174,114.5,94.199,114.5s94.199-58.952,94.199-114.5" fill="#4B3B2E"/><line fill="none" stroke="#F2F2F2" stroke-miterlimit="10" stroke-width="25" x1="170.5" x2="342.5" y1="385.5" y2="385.5"/><g><path d="M216.748,195.695c0,0-0.353,0.165-1.021,0.377c-0.667,0.209-1.651,0.469-2.899,0.625    c-1.256,0.171-2.775,0.238-4.531,0.081c-1.745-0.175-3.742-0.562-5.876-1.443c-2.128-0.878-4.439-2.232-6.599-4.436    c-1.09-1.076-2.105-2.408-3.002-3.906c-0.423-0.771-0.876-1.552-1.205-2.415c-0.366-0.848-0.685-1.732-0.925-2.655    c-1.063-3.69-1.011-7.728-0.25-11.264l0.14-0.67l0.076-0.334l0.02-0.083l0.01-0.042c-0.183,0.593-0.048,0.15-0.087,0.276    l0.021-0.101l0.167-0.813c0.107-0.544,0.224-1.087,0.36-1.625c0.027-0.122,0.078-0.3,0.084-0.376l0.028-0.249    c0.018-0.166,0.04-0.33,0.075-0.491c0.055-0.33,0.148-0.631,0.19-0.982c0.224-1.239,0.447-2.479,0.667-3.699    c0.128-1.029,0.37-2.006,0.422-3.216c0.028-1.219,0.023-2.656-0.213-4.26c-0.046-0.408-0.092-0.81-0.137-1.206    c-0.069-0.417-0.151-0.823-0.206-1.245c-0.108-0.83-0.26-1.677-0.406-2.515c-0.252-1.67-0.544-3.339-0.727-4.856    c-0.218-1.528-0.352-2.926-0.435-4.126c-0.19-2.38-0.091-3.951-0.091-3.951s1.554,0.116,3.912,0.689    c1.188,0.279,2.557,0.71,4.085,1.262c1.499,0.613,3.183,1.291,4.892,2.329c0.863,0.494,1.743,1.049,2.625,1.726    c0.451,0.323,0.884,0.674,1.338,1.027c0.452,0.374,0.881,0.798,1.33,1.216c1.785,1.651,3.526,3.877,4.995,6.576    c1.466,2.73,2.481,6.035,2.894,9.379c0.38,3.347,0.146,6.584-0.388,9.529c-0.136,0.749-0.35,1.523-0.53,2.28    c-0.091,0.381-0.196,0.759-0.303,1.134l-0.161,0.563c-0.055,0.195-0.094,0.28-0.142,0.425c-0.177,0.526-0.372,1.046-0.577,1.562    l-0.299,0.774l-0.037,0.097l-0.102,0.325l-0.004,0.008l-0.008,0.016c-0.01,0.021-0.021,0.042-0.035,0.063l-0.08,0.123    c-0.411,0.678-0.821,1.036-1.208,1.48c-0.403,0.444-0.81,1.143-0.903,2.206c-0.128,1.049,0.047,2.378,0.398,3.735    c0.349,1.357,0.842,2.774,1.384,4.063c0.535,1.303,1.099,2.502,1.586,3.546C216.134,194.435,216.748,195.695,216.748,195.695z" fill="#F2F2F2"/></g><g><path d="M290.398,195.695c0,0,0.613-1.261,1.687-3.467c0.487-1.044,1.051-2.243,1.586-3.546    c0.542-1.289,1.034-2.705,1.384-4.063c0.35-1.357,0.526-2.686,0.398-3.735c-0.093-1.062-0.5-1.761-0.903-2.206    c-0.387-0.444-0.796-0.802-1.208-1.48l-0.08-0.123c-0.014-0.02-0.025-0.041-0.035-0.063l-0.008-0.016l-0.004-0.008l-0.102-0.325    l-0.037-0.097l-0.299-0.774c-0.204-0.516-0.4-1.035-0.577-1.562c-0.048-0.145-0.087-0.231-0.142-0.425l-0.161-0.563    c-0.108-0.376-0.212-0.753-0.303-1.134c-0.18-0.757-0.394-1.531-0.53-2.28c-0.533-2.946-0.768-6.182-0.388-9.529    c0.413-3.344,1.428-6.65,2.894-9.379c1.469-2.699,3.21-4.926,4.995-6.576c0.449-0.418,0.878-0.842,1.33-1.216    c0.454-0.353,0.887-0.704,1.338-1.027c0.882-0.677,1.762-1.231,2.625-1.726c1.709-1.038,3.393-1.716,4.892-2.329    c1.528-0.552,2.897-0.984,4.085-1.262c2.358-0.573,3.912-0.689,3.912-0.689s0.099,1.571-0.091,3.951    c-0.083,1.2-0.217,2.598-0.435,4.126c-0.183,1.518-0.475,3.186-0.727,4.856c-0.146,0.839-0.299,1.685-0.406,2.515    c-0.055,0.422-0.137,0.828-0.206,1.245c-0.045,0.396-0.091,0.799-0.137,1.206c-0.236,1.604-0.241,3.041-0.213,4.26    c0.052,1.21,0.294,2.187,0.422,3.216c0.22,1.22,0.444,2.459,0.667,3.699c0.042,0.351,0.135,0.651,0.19,0.982    c0.035,0.161,0.057,0.325,0.075,0.491l0.028,0.249c0.006,0.076,0.058,0.254,0.084,0.376c0.136,0.538,0.253,1.081,0.36,1.625    l0.167,0.813l0.021,0.101c-0.039-0.126,0.096,0.318-0.087-0.276l0.01,0.042l0.02,0.083l0.076,0.334l0.14,0.67    c0.761,3.536,0.813,7.574-0.25,11.264c-0.24,0.923-0.559,1.807-0.925,2.655c-0.329,0.863-0.782,1.644-1.205,2.415    c-0.897,1.498-1.912,2.83-3.002,3.906c-2.16,2.204-4.472,3.558-6.599,4.436c-2.134,0.881-4.132,1.269-5.876,1.443    c-1.756,0.157-3.275,0.09-4.531-0.081c-1.248-0.156-2.233-0.416-2.899-0.625C290.751,195.86,290.398,195.695,290.398,195.695z" fill="#F2F2F2"/></g><g><path d="M259.036,189c0,0-0.548-0.094-1.534-0.379c-0.984-0.288-2.411-0.764-4.135-1.56    c-1.737-0.785-3.772-1.888-5.985-3.424c-2.194-1.548-4.584-3.526-6.877-6.165c-2.287-2.632-4.534-5.931-6.122-10.119    c-0.828-2.069-1.406-4.392-1.777-6.845c-0.127-1.24-0.31-2.504-0.278-3.804c-0.001-0.648-0.011-1.305,0.013-1.964    c0.043-0.657,0.107-1.317,0.175-1.982c0.529-5.353,2.652-10.605,5.498-14.994l0.534-0.831l0.272-0.413l0.069-0.103l0.035-0.051    c-0.369,0.491-0.088,0.115-0.164,0.215l0.099-0.15l0.792-1.202c0.525-0.805,1.06-1.606,1.612-2.398    c0.125-0.189,0.299-0.419,0.385-0.575l0.278-0.483c0.184-0.322,0.372-0.642,0.571-0.955c0.381-0.641,0.811-1.228,1.168-1.903    c0.72-1.333,1.572-2.671,2.146-3.944l0.486-0.961c0.173-0.32,0.344-0.633,0.454-0.946c0.262-0.625,0.515-1.253,0.812-1.868    c0.916-2.481,1.74-4.903,2.199-7.569c0.427-2.679,0.758-5.524,0.783-8.497c0.024-0.746,0.048-1.482,0.071-2.207    c-0.009-0.748-0.034-1.486-0.025-2.224c0-0.743,0.001-1.474,0.001-2.191c-0.019-0.733-0.053-1.45-0.057-2.166    c-0.015-2.843-0.119-5.573-0.097-8.014c-0.036-2.452,0.017-4.637,0.087-6.466c0.11-3.648,0.439-5.861,0.439-5.861    s1.719,1.403,4.26,4.084c1.281,1.337,2.717,3.029,4.316,5.006c1.522,2.035,3.272,4.303,4.872,7.044    c0.419,0.675,0.816,1.376,1.236,2.089c0.416,0.72,0.775,1.499,1.174,2.275c0.398,0.779,0.771,1.584,1.165,2.402    c0.372,0.84,0.697,1.727,1.049,2.619c1.417,3.54,2.453,7.716,2.934,12.293c0.456,4.61,0.027,9.649-1.162,14.491    c-0.33,1.185-0.707,2.365-1.076,3.554c-0.343,1.214-0.876,2.262-1.332,3.397c-0.892,2.305-2.081,4.275-3.198,6.351    c-0.58,1.019-1.284,2.01-1.927,3.01c-0.326,0.5-0.664,0.993-1.003,1.482l-0.508,0.734c-0.173,0.251-0.303,0.398-0.456,0.603    c-0.586,0.766-1.187,1.52-1.794,2.265l-0.904,1.12l-0.381,0.492l-0.142,0.172l-0.293,0.337c-1.55,1.816-2.765,3.485-3.561,5.293    c-0.455,0.899-0.726,1.861-1.032,2.883c-0.211,1.034-0.446,2.13-0.491,3.3c-0.175,2.328,0.07,4.88,0.522,7.362    c0.453,2.484,1.078,4.921,1.764,7.111c0.676,2.201,1.384,4.173,1.986,5.841C258.211,186.928,259.036,189,259.036,189z" fill="#F2F2F2"/></g></g></svg>