<?xml version="1.0" encoding="utf-8"?>
<!-- Generator: Adobe Illustrator 18.1.1, SVG Export Plug-In . SVG Version: 6.00 Build 0)  -->
<svg version="1.1" id="Layer_1" xmlns="http://www.w3.org/2000/svg" xmlns:xlink="http://www.w3.org/1999/xlink" x="0px" y="0px"
	 viewBox="0 0 612 792" enable-background="new 0 0 612 792" xml:space="preserve">
<ellipse fill="#383838" cx="306" cy="390" rx="306.1" ry="303.6"/>
<circle opacity="0.8" fill="none" stroke="#CCC7AB" stroke-width="20" stroke-miterlimit="10" enable-background="new    " cx="465.3" cy="491.5" r="46"/>
<path fill="#CCC7AB" d="M140.1,412.1c0,76.2,45.9,155.9,109.8,185.6h105.6c63.8-29.6,109.7-109.4,109.7-185.6H140.1z"/>
<g>
	<path fill="#4B3B2E" d="M288.4,565.7c-25.6,0-49.3-9.8-67-27.6c-24.4-24.6-40.5-59-43.1-91.7h248.6c-2.6,33.1-18.3,66.6-43.1,91.7
		c-17.7,17.8-41.4,27.6-67,27.6H288.4z"/>
	<path fill="#6E4F2B" d="M416.1,455.9c-1.8,10.4-4.9,20.9-9.2,31.1c-7.1,16.5-17.4,31.8-29.7,44.2c-15.9,16-37.3,24.7-60.2,24.7
		h-28.5c-22.9,0-44.3-8.7-60.2-24.7c-20.3-20.5-34.4-48-39-75.3h226.9 M437,436.7L437,436.7L437,436.7z M437,436.7H168.3
		c0,38.5,17.9,79.5,46.2,108.1c19.6,19.8,46.2,30.5,73.7,30.5h28.4c27.5,0,54.2-10.7,73.7-30.5C419.1,516.1,437,475.8,437,436.7
		L437,436.7z"/>
</g>
<path opacity="0.8" fill="#CCC7AB" enable-background="new    " d="M299.5,220.9c18.9,16.6,32.7,37.3,32,62.2
	c-1.3,48.1-48.7,66.4-19.9,116.8c-30.7-4.2-40.2-27.7-40.2-44.9C271.2,321,310.2,291.1,299.5,220.9z"/>
</svg>
